<mxfile host="app.diagrams.net" modified="2021-09-12T07:03:59.927Z" agent="5.0 (Macintosh; Intel Mac OS X 10_15_7) AppleWebKit/605.1.15 (KHTML, like Gecko) Version/14.1.2 Safari/605.1.15" etag="iBAgWK95QgH-i2MZOKRN" version="15.1.2" type="github">
  <diagram id="kvLUpkQkxvHUFUjLaUQS" name="Page-1">
    <mxGraphModel dx="704" dy="483" grid="1" gridSize="10" guides="1" tooltips="1" connect="1" arrows="1" fold="1" page="1" pageScale="1" pageWidth="827" pageHeight="1169" math="0" shadow="0">
      <root>
        <mxCell id="0" />
        <mxCell id="1" parent="0" />
        <mxCell id="aFMrFJCQJ-RdZ9VPG638-30" value="" style="group" vertex="1" connectable="0" parent="1">
          <mxGeometry x="270" y="120" width="260" height="200" as="geometry" />
        </mxCell>
        <mxCell id="aFMrFJCQJ-RdZ9VPG638-1" value="" style="endArrow=none;html=1;" edge="1" parent="aFMrFJCQJ-RdZ9VPG638-30">
          <mxGeometry width="50" height="50" relative="1" as="geometry">
            <mxPoint y="40" as="sourcePoint" />
            <mxPoint x="180" y="40" as="targetPoint" />
          </mxGeometry>
        </mxCell>
        <mxCell id="aFMrFJCQJ-RdZ9VPG638-2" value="" style="endArrow=none;html=1;" edge="1" parent="aFMrFJCQJ-RdZ9VPG638-30">
          <mxGeometry width="50" height="50" relative="1" as="geometry">
            <mxPoint y="160" as="sourcePoint" />
            <mxPoint x="180" y="160" as="targetPoint" />
          </mxGeometry>
        </mxCell>
        <mxCell id="aFMrFJCQJ-RdZ9VPG638-3" value="" style="endArrow=none;html=1;" edge="1" parent="aFMrFJCQJ-RdZ9VPG638-30">
          <mxGeometry width="50" height="50" relative="1" as="geometry">
            <mxPoint x="30" as="sourcePoint" />
            <mxPoint x="30" y="200" as="targetPoint" />
          </mxGeometry>
        </mxCell>
        <mxCell id="aFMrFJCQJ-RdZ9VPG638-4" value="" style="endArrow=none;html=1;" edge="1" parent="aFMrFJCQJ-RdZ9VPG638-30">
          <mxGeometry width="50" height="50" relative="1" as="geometry">
            <mxPoint x="90" y="70" as="sourcePoint" />
            <mxPoint x="90" y="40" as="targetPoint" />
          </mxGeometry>
        </mxCell>
        <mxCell id="aFMrFJCQJ-RdZ9VPG638-5" value="" style="endArrow=none;html=1;" edge="1" parent="aFMrFJCQJ-RdZ9VPG638-30">
          <mxGeometry width="50" height="50" relative="1" as="geometry">
            <mxPoint x="70" y="70" as="sourcePoint" />
            <mxPoint x="110" y="70" as="targetPoint" />
          </mxGeometry>
        </mxCell>
        <mxCell id="aFMrFJCQJ-RdZ9VPG638-6" value="" style="endArrow=none;html=1;" edge="1" parent="aFMrFJCQJ-RdZ9VPG638-30">
          <mxGeometry width="50" height="50" relative="1" as="geometry">
            <mxPoint x="70" y="80" as="sourcePoint" />
            <mxPoint x="110" y="80" as="targetPoint" />
            <Array as="points">
              <mxPoint x="70" y="80" />
            </Array>
          </mxGeometry>
        </mxCell>
        <mxCell id="aFMrFJCQJ-RdZ9VPG638-7" value="" style="endArrow=none;html=1;" edge="1" parent="aFMrFJCQJ-RdZ9VPG638-30">
          <mxGeometry width="50" height="50" relative="1" as="geometry">
            <mxPoint x="70" y="100" as="sourcePoint" />
            <mxPoint x="70" y="80" as="targetPoint" />
          </mxGeometry>
        </mxCell>
        <mxCell id="aFMrFJCQJ-RdZ9VPG638-8" value="" style="endArrow=none;html=1;" edge="1" parent="aFMrFJCQJ-RdZ9VPG638-30">
          <mxGeometry width="50" height="50" relative="1" as="geometry">
            <mxPoint x="110" y="100" as="sourcePoint" />
            <mxPoint x="110" y="80" as="targetPoint" />
          </mxGeometry>
        </mxCell>
        <mxCell id="aFMrFJCQJ-RdZ9VPG638-9" value="" style="endArrow=none;html=1;" edge="1" parent="aFMrFJCQJ-RdZ9VPG638-30">
          <mxGeometry width="50" height="50" relative="1" as="geometry">
            <mxPoint x="30" y="100" as="sourcePoint" />
            <mxPoint x="70" y="100" as="targetPoint" />
          </mxGeometry>
        </mxCell>
        <mxCell id="aFMrFJCQJ-RdZ9VPG638-10" value="" style="endArrow=none;html=1;" edge="1" parent="aFMrFJCQJ-RdZ9VPG638-30">
          <mxGeometry width="50" height="50" relative="1" as="geometry">
            <mxPoint x="150" y="100" as="sourcePoint" />
            <mxPoint x="110" y="100" as="targetPoint" />
          </mxGeometry>
        </mxCell>
        <mxCell id="aFMrFJCQJ-RdZ9VPG638-11" value="" style="endArrow=none;html=1;" edge="1" parent="aFMrFJCQJ-RdZ9VPG638-30">
          <mxGeometry width="50" height="50" relative="1" as="geometry">
            <mxPoint x="150" y="120" as="sourcePoint" />
            <mxPoint x="150" y="100" as="targetPoint" />
          </mxGeometry>
        </mxCell>
        <mxCell id="aFMrFJCQJ-RdZ9VPG638-12" value="" style="endArrow=none;html=1;" edge="1" parent="aFMrFJCQJ-RdZ9VPG638-30">
          <mxGeometry width="50" height="50" relative="1" as="geometry">
            <mxPoint x="130" y="120" as="sourcePoint" />
            <mxPoint x="170" y="120" as="targetPoint" />
          </mxGeometry>
        </mxCell>
        <mxCell id="aFMrFJCQJ-RdZ9VPG638-13" value="" style="endArrow=none;html=1;" edge="1" parent="aFMrFJCQJ-RdZ9VPG638-30">
          <mxGeometry width="50" height="50" relative="1" as="geometry">
            <mxPoint x="130" y="130" as="sourcePoint" />
            <mxPoint x="170" y="130" as="targetPoint" />
          </mxGeometry>
        </mxCell>
        <mxCell id="aFMrFJCQJ-RdZ9VPG638-14" value="" style="endArrow=none;html=1;" edge="1" parent="aFMrFJCQJ-RdZ9VPG638-30">
          <mxGeometry width="50" height="50" relative="1" as="geometry">
            <mxPoint x="140" y="140" as="sourcePoint" />
            <mxPoint x="160" y="110" as="targetPoint" />
          </mxGeometry>
        </mxCell>
        <mxCell id="aFMrFJCQJ-RdZ9VPG638-15" value="" style="endArrow=none;html=1;" edge="1" parent="aFMrFJCQJ-RdZ9VPG638-30">
          <mxGeometry width="50" height="50" relative="1" as="geometry">
            <mxPoint x="130" y="140" as="sourcePoint" />
            <mxPoint x="140" y="140" as="targetPoint" />
          </mxGeometry>
        </mxCell>
        <mxCell id="aFMrFJCQJ-RdZ9VPG638-16" value="" style="endArrow=none;html=1;" edge="1" parent="aFMrFJCQJ-RdZ9VPG638-30">
          <mxGeometry width="50" height="50" relative="1" as="geometry">
            <mxPoint x="160" y="110" as="sourcePoint" />
            <mxPoint x="170" y="110" as="targetPoint" />
          </mxGeometry>
        </mxCell>
        <mxCell id="aFMrFJCQJ-RdZ9VPG638-17" value="" style="endArrow=none;html=1;" edge="1" parent="aFMrFJCQJ-RdZ9VPG638-30">
          <mxGeometry width="50" height="50" relative="1" as="geometry">
            <mxPoint x="150" y="160" as="sourcePoint" />
            <mxPoint x="150" y="130" as="targetPoint" />
          </mxGeometry>
        </mxCell>
        <mxCell id="aFMrFJCQJ-RdZ9VPG638-18" value="" style="ellipse;whiteSpace=wrap;html=1;aspect=fixed;strokeColor=#82b366;fillColor=#009900;" vertex="1" parent="aFMrFJCQJ-RdZ9VPG638-30">
          <mxGeometry x="88" y="38" width="5" height="5" as="geometry" />
        </mxCell>
        <mxCell id="aFMrFJCQJ-RdZ9VPG638-23" value="" style="ellipse;whiteSpace=wrap;html=1;aspect=fixed;strokeColor=#82b366;fillColor=#009900;" vertex="1" parent="aFMrFJCQJ-RdZ9VPG638-30">
          <mxGeometry x="28" y="98" width="5" height="5" as="geometry" />
        </mxCell>
        <mxCell id="aFMrFJCQJ-RdZ9VPG638-24" value="" style="ellipse;whiteSpace=wrap;html=1;aspect=fixed;strokeColor=#82b366;fillColor=#009900;" vertex="1" parent="aFMrFJCQJ-RdZ9VPG638-30">
          <mxGeometry x="148" y="158" width="5" height="5" as="geometry" />
        </mxCell>
        <mxCell id="aFMrFJCQJ-RdZ9VPG638-26" value="" style="endArrow=classic;html=1;" edge="1" parent="aFMrFJCQJ-RdZ9VPG638-30" source="aFMrFJCQJ-RdZ9VPG638-29">
          <mxGeometry width="50" height="50" relative="1" as="geometry">
            <mxPoint x="210" y="150" as="sourcePoint" />
            <mxPoint x="180" y="130" as="targetPoint" />
          </mxGeometry>
        </mxCell>
        <mxCell id="aFMrFJCQJ-RdZ9VPG638-29" value="铁电电容器" style="text;html=1;strokeColor=none;fillColor=none;align=center;verticalAlign=middle;whiteSpace=wrap;rounded=0;" vertex="1" parent="aFMrFJCQJ-RdZ9VPG638-30">
          <mxGeometry x="190" y="140" width="70" height="20" as="geometry" />
        </mxCell>
      </root>
    </mxGraphModel>
  </diagram>
</mxfile>
